<svg width="30" height="34" viewBox="0 0 30 34" fill="none" xmlns="http://www.w3.org/2000/svg">
<path d="M6.06249 0.958344C3.22516 0.958344 0.916664 3.26684 0.916664 6.10417V29.8542C0.916664 30.2999 1.16636 30.7091 1.56299 30.9118C1.95961 31.1144 2.43663 31.0787 2.79842 30.8175L10.4476 25.3098C10.4357 25.1095 10.4167 24.9118 10.4167 24.7083C10.4167 23.8304 10.5401 22.9825 10.7476 22.1679L3.29167 27.5364V6.10417C3.29167 4.57626 4.53459 3.33334 6.0625 3.33334H17.9375C19.4654 3.33334 20.7083 4.57626 20.7083 6.10417V14.4167C21.5269 14.4167 22.3194 14.523 23.0833 14.7043V6.10417C23.0833 3.26684 20.7748 0.958344 17.9375 0.958344H6.06249ZM20.7083 16C15.8989 16 12 19.899 12 24.7083C12 29.5177 15.8989 33.4167 20.7083 33.4167C25.5177 33.4167 29.4166 29.5177 29.4166 24.7083C29.4166 19.899 25.5177 16 20.7083 16ZM20.7083 18.375C21.1453 18.375 21.5 18.7297 21.5 19.1667V23.9167H26.25C26.687 23.9167 27.0416 24.2713 27.0416 24.7083C27.0416 25.1453 26.687 25.5 26.25 25.5H21.5V30.25C21.5 30.687 21.1453 31.0417 20.7083 31.0417C20.2713 31.0417 19.9167 30.687 19.9167 30.25V25.5H15.1667C14.7297 25.5 14.375 25.1453 14.375 24.7083C14.375 24.2713 14.7297 23.9167 15.1667 23.9167H19.9167V19.1667C19.9167 18.7297 20.2713 18.375 20.7083 18.375Z" fill="#8B8B8B"/>
</svg>
