<svg width="20" height="20" viewBox="0 0 20 20" fill="none" xmlns="http://www.w3.org/2000/svg">
<path d="M9.99999 0C8.24584 0 6.7852 1.31071 6.54004 3H3.11914C3.07656 2.99271 3.03343 2.98912 2.99023 2.98926C2.95291 2.99006 2.91569 2.99365 2.8789 3H1.25C0.979525 2.99617 0.72794 3.13828 0.591585 3.3719C0.45523 3.60553 0.45523 3.89447 0.591585 4.12809C0.72794 4.36172 0.979525 4.50382 1.25 4.5H2.31933L3.57812 17.5146C3.71366 18.918 4.90589 20 6.31543 20H13.6836C15.0932 20 16.2854 18.9181 16.4209 17.5146L17.6807 4.5H18.75C19.0205 4.50382 19.272 4.36172 19.4084 4.12809C19.5448 3.89447 19.5448 3.60552 19.4084 3.3719C19.272 3.13828 19.0205 2.99617 18.75 3H17.1221C17.0425 2.98709 16.9614 2.98709 16.8818 3H13.46C13.2148 1.31071 11.7541 0 9.99999 0ZM9.99999 1.5C10.9396 1.5 11.7104 2.13408 11.9307 3H8.06933C8.28961 2.13408 9.06042 1.5 9.99999 1.5ZM3.82519 4.5H16.1738L14.9277 17.3701C14.8652 18.0177 14.334 18.5 13.6836 18.5H6.31543C5.66597 18.5 5.13375 18.0168 5.07129 17.3701L3.82519 4.5ZM8.23828 6.98926C7.82445 6.99572 7.49406 7.33616 7.5 7.75V15.25C7.49617 15.5205 7.63828 15.7721 7.8719 15.9084C8.10553 16.0448 8.39447 16.0448 8.62809 15.9084C8.86171 15.7721 9.00382 15.5205 9 15.25V7.75C9.0029 7.54719 8.92355 7.35185 8.78004 7.20852C8.63653 7.06519 8.44108 6.98609 8.23828 6.98926ZM11.7383 6.98926C11.3244 6.99572 10.9941 7.33616 11 7.75V15.25C10.9962 15.5205 11.1383 15.7721 11.3719 15.9084C11.6055 16.0448 11.8945 16.0448 12.1281 15.9084C12.3617 15.7721 12.5038 15.5205 12.5 15.25V7.75C12.5029 7.54719 12.4236 7.35185 12.28 7.20852C12.1365 7.06519 11.9411 6.98609 11.7383 6.98926Z" fill="white"/>
</svg>
