<svg width="20" height="20" viewBox="0 0 20 20" fill="none" xmlns="http://www.w3.org/2000/svg">
<path d="M16 0.504883C15.1026 0.504883 14.2054 0.845068 13.5254 1.52539L2.45799 12.5918C2.248 12.8018 2.09421 13.0629 2.01268 13.3496L0.529281 18.5439C0.454786 18.8057 0.527891 19.0872 0.720321 19.2797C0.912746 19.4721 1.1943 19.5452 1.45604 19.4707L6.65135 17.9873C6.65167 17.987 6.652 17.9866 6.65232 17.9863C6.93708 17.9045 7.19758 17.7526 7.40818 17.542L18.4746 6.47461C19.8351 5.11406 19.8351 2.88596 18.4746 1.5254C17.7946 0.845078 16.8973 0.504883 16 0.504883ZM16 1.99609C16.5104 1.99609 17.0201 2.19276 17.4131 2.58594C17.4134 2.58594 17.4137 2.58594 17.414 2.58594C18.2015 3.37338 18.2015 4.62662 17.414 5.41406L16.4443 6.38378L13.6162 3.55566L14.5859 2.58594C14.9789 2.19276 15.4896 1.99609 16 1.99609ZM12.5556 4.61621L15.3838 7.44433L6.34666 16.4814C6.31735 16.5105 6.28022 16.5328 6.23826 16.5449L2.34178 17.6582L3.45506 13.7607C3.45506 13.7604 3.45506 13.7601 3.45506 13.7598C3.46652 13.7194 3.48752 13.6833 3.51853 13.6523L12.5556 4.61621Z" fill="white"/>
</svg>
