<svg width="42" height="41" viewBox="0 0 42 41" fill="none" xmlns="http://www.w3.org/2000/svg">
<path d="M11.6875 3.54166C9.15737 3.54166 7.08333 5.6157 7.08333 8.14582V29.3958C7.08339 29.5914 7.13742 29.7832 7.23947 29.95C7.34152 30.1168 7.48764 30.2523 7.66173 30.3414C7.83582 30.4305 8.03112 30.4698 8.22614 30.4551C8.42115 30.4403 8.60831 30.372 8.767 30.2577L17 24.3296L25.233 30.2577C25.3917 30.372 25.5788 30.4403 25.7739 30.4551C25.9689 30.4698 26.1642 30.4305 26.3383 30.3414C26.5124 30.2523 26.6585 30.1168 26.7605 29.95C26.8626 29.7832 26.9166 29.5914 26.9167 29.3958V8.14582C26.9167 5.6157 24.8426 3.54166 22.3125 3.54166H11.6875ZM11.6875 5.66666H22.3125C23.6938 5.66666 24.7917 6.76453 24.7917 8.14582V27.322L17.6212 22.1589C17.4403 22.0286 17.223 21.9585 17 21.9585C16.777 21.9585 16.5597 22.0286 16.3788 22.1589L9.20833 27.322V8.14582C9.20833 6.76453 10.3062 5.66666 11.6875 5.66666Z" fill="#8B8B8B"/>
<path d="M16 12H34V37L25 30L16 37V12Z" fill="white"/>
<path d="M14.5833 36.3958L14.5833 36.396C14.5834 36.6836 14.6629 36.9656 14.8129 37.2109C14.963 37.4562 15.1779 37.6554 15.4339 37.7865C15.6899 37.9175 15.9771 37.9754 16.2639 37.9537C16.5507 37.932 16.8259 37.8315 17.0592 37.6634L25 31.9457L32.9408 37.6634C32.9408 37.6634 32.9408 37.6635 32.9408 37.6635C33.1742 37.8315 33.4494 37.932 33.7361 37.9537C34.0229 37.9754 34.3101 37.9175 34.5661 37.7865C34.8221 37.6554 35.037 37.4562 35.187 37.2109L34.7605 36.95L35.1871 37.2109C35.3371 36.9656 35.4166 36.6836 35.4167 36.396V36.3958V15.1458C35.4167 12.3396 33.1188 10.0417 30.3125 10.0417H19.6875C16.8812 10.0417 14.5833 12.3396 14.5833 15.1458V36.3958ZM19.6875 13.1667H30.3125C31.4176 13.1667 32.2917 14.0407 32.2917 15.1458V33.3459L25.9135 28.7533C25.6474 28.5616 25.3279 28.4585 25 28.4585C24.6722 28.4585 24.3527 28.5616 24.0867 28.7532C24.0866 28.7532 24.0866 28.7532 24.0865 28.7533L17.7083 33.3459V15.1458C17.7083 14.0407 18.5823 13.1667 19.6875 13.1667Z" fill="#8B8B8B" stroke="white"/>
</svg>
