<svg width="42" height="42" viewBox="0 0 42 42" fill="none" xmlns="http://www.w3.org/2000/svg">
<path d="M17.9375 5.25C10.9459 5.25 5.25 10.9459 5.25 17.9375C5.25 24.9291 10.9459 30.625 17.9375 30.625C20.9618 30.625 23.742 29.5566 25.9253 27.7812L34.5095 36.3655C34.8387 36.7083 35.3275 36.8464 35.7875 36.7265C36.2474 36.6066 36.6066 36.2474 36.7265 35.7875C36.8464 35.3275 36.7083 34.8387 36.3655 34.5095L27.7812 25.9253C29.5566 23.742 30.625 20.9618 30.625 17.9375C30.625 10.9459 24.9291 5.25 17.9375 5.25ZM17.9375 7.875C23.5104 7.875 28 12.3646 28 17.9375C28 20.6523 26.9292 23.105 25.1921 24.9118C25.0851 24.9905 24.9906 25.085 24.9119 25.1921C23.105 26.9292 20.6523 28 17.9375 28C12.3646 28 7.87501 23.5104 7.87501 17.9375C7.87501 12.3646 12.3646 7.875 17.9375 7.875Z" fill="#8B8B8B"/>
</svg>
