<svg version="1.1" xmlns="http://www.w3.org/2000/svg" xmlns:xlink="http://www.w3.org/1999/xlink" width="40px"
    height="40px" viewBox="0,0,256,256">
    <g fill="#8b8b8b" fill-rule="nonzero" stroke="none" stroke-width="1" stroke-linecap="butt" stroke-linejoin="miter"
        stroke-miterlimit="10" stroke-dasharray="" stroke-dashoffset="0" font-family="none" font-weight="none"
        font-size="none" text-anchor="none" style="mix-blend-mode: normal">
        <g transform="scale(5.33333,5.33333)">
            <path
                d="M24.5,4c-4.77733,0 -8.69818,1.34381 -11.40625,3.9082c-2.70807,2.5644 -4.09375,6.27561 -4.09375,10.5918v3.75781c-1.14023,0.91044 -2,2.17286 -2,3.74219c0,2.36174 1.70447,4.27003 3.91992,4.78125c0.89653,3.55508 2.38692,6.722 4.48633,9.04688c2.30219,2.54943 5.30064,4.17188 8.59375,4.17188c3.29311,0 6.29156,-1.62244 8.59375,-4.17187c2.09941,-2.32488 3.5898,-5.49179 4.48633,-9.04687c2.21545,-0.51122 3.91992,-2.41951 3.91992,-4.78125c0,-1.56972 -0.8629,-2.82534 -2,-3.73047v-1.76953c0,-1.52771 -0.30709,-2.81541 -0.61133,-3.75391c1.34041,-0.76972 2.0158,-2.44498 1.31445,-3.91406c-2.50427,-5.23529 -7.93042,-8.83203 -15.20312,-8.83203zM24.5,7c6.3173,0 10.47236,2.89624 12.49609,7.12695c0.01959,0.04175 0.0162,0.05551 -0.05859,0.07813c-1.10628,0.33458 -3.78176,0.79492 -6.9375,0.79492c-3.8125,0 -6.34837,-0.71041 -7.9082,-1.37891c-1.55983,-0.6685 -2.03125,-1.18164 -2.03125,-1.18164c-0.36186,-0.36187 -0.88322,-0.51431 -1.38302,-0.40439c-0.49981,0.10993 -0.9091,0.46705 -1.08573,0.94736c0,0 -0.33429,1.03948 -2.00781,2.32813c-0.65692,0.5059 -0.77934,1.44855 -0.27344,2.10547c0.5059,0.65692 1.44855,0.77934 2.10547,0.27344c0.98165,-0.75589 1.5829,-1.52706 2.05664,-2.18945c0.49889,0.34549 0.49748,0.47688 1.43555,0.87891c1.94017,0.8315 4.9043,1.62109 9.0918,1.62109c2.19153,0 3.96302,-0.2029 5.48438,-0.45898c0.24497,0.69534 0.51563,1.66939 0.51563,2.95898v2.37891c-0.00035,0.57906 0.3326,1.10662 0.85547,1.35547c0.68717,0.32664 1.14453,0.96843 1.14453,1.76563c0,1.12234 -0.87766,2 -2,2c0.26471,0 0.24617,-0.00586 -0.06055,-0.00586c-0.70979,-0.00034 -1.32267,0.49681 -1.46875,1.19141c-0.74352,3.54312 -2.2342,6.56079 -4.10352,8.63086c-1.86931,2.07011 -4.0493,3.18359 -6.36719,3.18359c-2.31789,0 -4.49787,-1.11353 -6.36719,-3.18359c-1.86931,-2.07007 -3.36,-5.08774 -4.10352,-8.63086c-0.14608,-0.69459 -0.75896,-1.19174 -1.46875,-1.19141c-0.30671,0 -0.32526,0.00586 -0.06055,0.00586c-1.12234,0 -2,-0.87766 -2,-2c0,-0.80363 0.4615,-1.45833 1.14258,-1.78125c0.52363,-0.24829 0.85741,-0.77596 0.85742,-1.35547v-4.36328c0,-3.69181 1.11432,-6.48046 3.15625,-8.41406c2.04193,-1.9336 5.12108,-3.08594 9.34375,-3.08594zM19,24c-1.10457,0 -2,0.89543 -2,2c0,1.10457 0.89543,2 2,2c1.10457,0 2,-0.89543 2,-2c0,-1.10457 -0.89543,-2 -2,-2zM29,24c-1.10457,0 -2,0.89543 -2,2c0,1.10457 0.89543,2 2,2c1.10457,0 2,-0.89543 2,-2c0,-1.10457 -0.89543,-2 -2,-2z">
            </path>
        </g>
    </g>
</svg>